<?xml version="1.0" encoding="UTF-8"?>
<svg version="1.1" xmlns="http://www.w3.org/2000/svg" width="512" height="512">
<path d="M0 0 C1.02477951 -0.00287018 2.04955902 -0.00574036 3.10539246 -0.00869751 C5.25768592 -0.01072878 7.40999825 -0.00526491 9.56225586 0.00732422 C12.86288263 0.02347378 16.1623002 0.0074009 19.46289062 -0.01171875 C21.55859645 -0.00973777 23.65430153 -0.00589711 25.75 0 C26.73748734 -0.00607269 27.72497467 -0.01214539 28.74238586 -0.0184021 C30.11477669 -0.00421738 30.11477669 -0.00421738 31.51489258 0.01025391 C32.31905106 0.01264069 33.12320953 0.01502747 33.95173645 0.01748657 C36.56399074 0.49334987 37.44922824 1.30819822 39.04296875 3.3984375 C39.48046875 5.8984375 39.48046875 5.8984375 39.04296875 8.3984375 C36.21813285 11.04835828 34.29804248 11.77200354 30.46142578 11.76733398 C29.56013947 11.77421738 28.65885315 11.78110077 27.73025513 11.78819275 C26.76352875 11.78203445 25.79680237 11.77587616 24.80078125 11.76953125 C22.74479001 11.78691459 20.68880046 11.80449896 18.6328125 11.82226562 C15.39824287 11.83233528 12.16378387 11.83593529 8.92919922 11.83422852 C5.80272574 11.83780353 2.67710307 11.86516676 -0.44921875 11.89453125 C-1.89323563 11.88225746 -1.89323563 11.88225746 -3.36642456 11.86973572 C-9.03351164 11.93239872 -12.56010931 12.44642665 -16.95703125 16.3984375 C-19.19299872 19.81705927 -19.19994792 22.69760382 -19.18408203 26.72753906 C-19.18393097 28.00856506 -19.18377991 29.28959106 -19.18362427 30.60943604 C-19.17341176 32.00264644 -19.16297978 33.39585526 -19.15234375 34.7890625 C-19.14861189 36.21823936 -19.14576573 37.64741878 -19.14376831 39.07659912 C-19.13614544 42.83149321 -19.11650864 46.58623169 -19.09436035 50.34106445 C-19.07387284 54.17527156 -19.06476039 58.00950389 -19.0546875 61.84375 C-19.03326137 69.36204998 -18.99914181 76.8802219 -18.95703125 84.3984375 C-16.6850795 85.25284353 -16.6850795 85.25284353 -13.95703125 85.3984375 C-11.63188817 83.7840965 -11.63188817 83.7840965 -9.45800781 81.5168457 C-3.44803446 76.42267848 1.40041161 76.31268217 9.05859375 76.50390625 C10.88049225 76.49826408 10.88049225 76.49826408 12.73919678 76.49250793 C16.59162549 76.48623619 20.44093614 76.53312037 24.29296875 76.5859375 C28.15864509 76.61217403 32.02382162 76.62697541 35.8895874 76.62580872 C38.28700824 76.62783272 40.6844926 76.64702234 43.081604 76.68559265 C50.98792427 76.75223799 50.98792427 76.75223799 58.04296875 73.3984375 C62.25017487 68.6433815 62.60024796 64.76183852 62.60546875 58.7109375 C62.65151655 50.96832945 62.65151655 50.96832945 64.4140625 48.40234375 C66.77468079 46.94747828 68.32648753 46.99096532 71.04296875 47.3984375 C72.67578125 48.4453125 72.67578125 48.4453125 74.04296875 50.3984375 C74.34566208 53.03958521 74.4699685 55.38777571 74.41796875 58.0234375 C74.40491699 59.10214111 74.40491699 59.10214111 74.39160156 60.20263672 C74.16981496 68.26148919 72.32707993 75.11462961 67.04296875 81.3984375 C61.81175593 85.30596287 57.42485789 87.53718616 50.81225586 87.47680664 C49.74361801 87.47093033 48.67498016 87.46505402 47.57395935 87.45899963 C46.41775589 87.45061569 45.26155243 87.44223175 44.0703125 87.43359375 C41.61913644 87.43730848 39.16796292 87.44323917 36.71679688 87.45117188 C32.8542334 87.46170592 28.99351184 87.46106738 25.13110352 87.42260742 C21.40149463 87.38934367 17.67491749 87.4071502 13.9453125 87.43359375 C12.80327866 87.41104019 11.66124481 87.38848663 10.48460388 87.36524963 C2.74874792 87.48006945 -1.25439198 89.30858786 -6.93016052 94.58470154 C-10.28009222 97.58237253 -13.50817829 97.68578094 -17.8984375 97.61328125 C-22.43592747 97.13972917 -25.23807225 95.17569048 -28.26953125 91.8984375 C-30.95957598 87.91318605 -31.09325447 84.8623226 -31.1340332 80.15795898 C-31.14686844 78.86909286 -31.15970367 77.58022675 -31.17292786 76.25230408 C-31.18109914 74.84138373 -31.18854212 73.43045901 -31.1953125 72.01953125 C-31.19938803 71.30661486 -31.20346355 70.59369846 -31.20766258 69.85917854 C-31.22851766 66.08051978 -31.24281778 62.3018972 -31.25219727 58.52319336 C-31.26321801 54.64197053 -31.29756821 50.76132795 -31.33736897 46.8803091 C-31.36367356 43.87833175 -31.3719016 40.87648924 -31.37547874 37.87440681 C-31.38031468 36.44522273 -31.39184211 35.01604344 -31.41051674 33.58697319 C-31.52665999 24.10432338 -31.08015468 15.72558227 -25.09765625 7.99609375 C-24.47375 7.48949219 -23.84984375 6.98289063 -23.20703125 6.4609375 C-22.5934375 5.93628906 -21.97984375 5.41164062 -21.34765625 4.87109375 C-14.32939131 0.5477508 -8.05434817 -0.05004428 0 0 Z " fill="#000000" transform="translate(224.95703125,213.6015625)"/>
<path d="M0 0 C3.98561154 2.62688033 6.23980531 5.28191592 7.75 9.8125 C8.4609778 16.80378168 6.87187201 20.24277635 2.75 25.8125 C0.26633006 28.68586929 -2.38182325 31.36577247 -5.078125 34.0390625 C-5.82656677 34.79037445 -6.57500854 35.5416864 -7.34613037 36.31576538 C-8.9225451 37.89421088 -10.50271179 39.4689173 -12.08642578 41.04003906 C-14.48953109 43.42710098 -16.87623341 45.82971927 -19.26171875 48.234375 C-20.80372682 49.77440002 -22.34666557 51.31349384 -23.890625 52.8515625 C-24.94579315 53.91583969 -24.94579315 53.91583969 -26.02227783 55.00161743 C-35.47842051 64.32700885 -44.57410453 69.45421013 -57.734375 71.08984375 C-60.25 70.8125 -60.25 70.8125 -62.56640625 69.15234375 C-65.22680742 65.45494166 -64.62476977 62.69372694 -63.97412109 58.32910156 C-60.82322738 43.02718889 -49.6782878 33.27858021 -38.90673828 22.77636719 C-36.10679781 20.04474192 -33.33507027 17.28672547 -30.56640625 14.5234375 C-28.7932348 12.76924681 -27.01854865 11.0165856 -25.2421875 9.265625 C-24.41500214 8.44491516 -23.58781677 7.62420532 -22.73556519 6.77862549 C-21.9577066 6.02313416 -21.17984802 5.26764282 -20.37841797 4.48925781 C-19.70003876 3.8253302 -19.02165955 3.16140259 -18.32272339 2.47735596 C-12.80866714 -1.95165249 -6.47841692 -2.36711387 0 0 Z M-11.34963989 11.17042542 C-12.04008392 11.8651445 -12.73052795 12.55986359 -13.44189453 13.27563477 C-14.23266388 14.05717422 -15.02343323 14.83871368 -15.83816528 15.64393616 C-16.67789886 16.50522629 -17.51763245 17.36651642 -18.3828125 18.25390625 C-19.25646454 19.12893295 -20.13011658 20.00395966 -21.03024292 20.90550232 C-23.35175825 23.23841708 -25.65885303 25.58452841 -27.9609375 27.93658447 C-30.29613443 30.31199823 -32.65602251 32.66249738 -35.01171875 35.01757812 C-36.80350138 36.82411548 -38.5939119 38.63201496 -40.3828125 40.44140625 C-41.64848557 41.71208702 -41.64848557 41.71208702 -42.93972778 43.00843811 C-49.86790831 49.78242672 -49.86790831 49.78242672 -52.25 58.8125 C-39.91814541 56.93591343 -29.28694857 42.15996965 -20.76879883 33.73632812 C-19.28434662 32.273723 -17.79365044 30.817431 -16.29711914 29.3671875 C-14.11719136 27.25377723 -11.95725886 25.12167543 -9.80078125 22.984375 C-9.12702957 22.33845398 -8.45327789 21.69253296 -7.7591095 21.02703857 C-6.08640478 19.34670656 -4.56455943 17.78568978 -3.25 15.8125 C-3.15285393 12.93982396 -3.15285393 12.93982396 -4.25 10.8125 C-7.94374692 9.61577263 -7.94374692 9.61577263 -11.34963989 11.17042542 Z " fill="#000000" transform="translate(310.25,202.1875)"/>
<path d="M0 0 C1.25586914 -0.00386719 1.25586914 -0.00386719 2.53710938 -0.0078125 C3.41302734 -0.00007813 4.28894531 0.00765625 5.19140625 0.015625 C6.06345703 0.00789063 6.93550781 0.00015625 7.83398438 -0.0078125 C8.67251953 -0.00523437 9.51105469 -0.00265625 10.375 0 C11.14255615 0.00225586 11.9101123 0.00451172 12.70092773 0.00683594 C14.75390625 0.265625 14.75390625 0.265625 17.75390625 2.265625 C18.19140625 5.203125 18.19140625 5.203125 17.75390625 8.265625 C15.2167629 11.08761734 13.60702336 11.28167225 9.78515625 11.69921875 C8.27483688 11.71641153 6.76425763 11.71722845 5.25390625 11.703125 C4.49464844 11.72310547 3.73539063 11.74308594 2.953125 11.76367188 C-0.67755778 11.76049264 -2.82231409 11.57661407 -5.78515625 9.40234375 C-7.24609375 7.265625 -7.24609375 7.265625 -7.12109375 4.640625 C-5.62184933 0.57124729 -4.08943065 0.01203659 0 0 Z " fill="#000000" transform="translate(220.24609375,261.734375)"/>
<path d="M0 0 C0.886875 -0.00257813 1.77375 -0.00515625 2.6875 -0.0078125 C4.0796875 0.00378906 4.0796875 0.00378906 5.5 0.015625 C6.428125 0.00789062 7.35625 0.00015625 8.3125 -0.0078125 C9.6428125 -0.00394531 9.6428125 -0.00394531 11 0 C11.8146875 0.00225586 12.629375 0.00451172 13.46875 0.00683594 C15.5 0.265625 15.5 0.265625 17.5 2.265625 C17.75 5.265625 17.75 5.265625 17.5 8.265625 C14.56127345 11.20435155 11.9763338 10.55731502 7.95703125 10.58789062 C6.98121094 10.58466797 6.00539062 10.58144531 5 10.578125 C4.02417969 10.59423828 3.04835937 10.61035156 2.04296875 10.62695312 C1.11097656 10.62759766 0.17898437 10.62824219 -0.78125 10.62890625 C-1.63783203 10.63188721 -2.49441406 10.63486816 -3.37695312 10.63793945 C-4.07755859 10.51507568 -4.77816406 10.39221191 -5.5 10.265625 C-7.5 7.265625 -7.5 7.265625 -7.25 4.703125 C-5.92347211 0.39190935 -4.18408905 0.01158569 0 0 Z " fill="#000000" transform="translate(220.5,242.734375)"/>
</svg>
